<svg version="1.2" xmlns="http://www.w3.org/2000/svg" viewBox="0 0 53 46" width="53" height="46">
	<style>
		.s0 { fill: #ed1d25 } 
		.s1 { fill: #000000 } 
	</style>
	<path fill-rule="evenodd" class="s0" d="m14.14 7.84c-0.37-1.21-1.48-2.05-2.75-2.05-2.24 0-5.79 0-8.51 0-0.91 0-1.77 0.44-2.31 1.17-0.54 0.73-0.71 1.67-0.45 2.54 2.13 7.06 6.69 22.2 8.35 27.7 0.37 1.22 1.49 2.05 2.75 2.05 2.24 0 5.79 0 8.51 0 0.91 0 1.77-0.43 2.31-1.16 0.55-0.73 0.71-1.68 0.45-2.55-2.13-7.05-6.69-22.2-8.35-27.7z"/>
	<path fill-rule="evenodd" class="s0" d="m31.64 7.84c-0.37-1.21-1.49-2.05-2.76-2.05-2.23 0-5.78 0-8.51 0-0.91 0-1.76 0.44-2.31 1.17-0.54 0.73-0.7 1.67-0.44 2.54 1.69 5.61 4.84 16.08 6.17 20.49 0.37 1.21 1.49 2.04 2.76 2.04 2.23 0 5.78 0 8.51 0 0.91 0 1.76-0.43 2.31-1.16 0.54-0.73 0.7-1.67 0.44-2.54-1.69-5.61-4.84-16.08-6.17-20.49z"/>
	<path fill-rule="evenodd" class="s0" d="m49.29 7.84c-0.36-1.21-1.48-2.05-2.75-2.05-2.23 0-5.78 0-8.51 0-0.91 0-1.77 0.44-2.31 1.17-0.54 0.73-0.71 1.67-0.45 2.54 1.02 3.38 2.49 8.25 3.31 10.97 0.37 1.22 1.49 2.05 2.76 2.05 2.23 0 5.78 0 8.51 0 0.91 0 1.76-0.43 2.31-1.16 0.54-0.73 0.7-1.67 0.44-2.54-1.02-3.38-2.49-8.25-3.31-10.98z"/>
	<path class="s1" d="m155.77 8.16c0.82-1.87 2.5-2.55 4.23-2.55v3.21c-1.95-0.13-4.23 0.77-4.23 3.85v6.93h-2.97v-13.75h2.97z"/>
	<path class="s1" d="m139.14 13.99c0.46 2.14 2.2 3.24 4.4 3.24 1.64 0 2.88-0.74 3.54-1.7l2.45 1.43c-1.27 1.87-3.33 2.99-6.02 2.99-4.54 0-7.48-3.1-7.48-7.22 0-4.07 2.94-7.23 7.26-7.23 4.09 0 6.9 3.3 6.9 7.25 0 0.42-0.06 0.86-0.11 1.24zm-0.03-2.42h8.08c-0.41-2.36-2.15-3.38-3.93-3.38-2.23 0-3.74 1.32-4.15 3.38z"/>
	<path class="s1" d="m131.87 3.79c-1.04 0-1.9-0.88-1.9-1.89 0-1.05 0.86-1.9 1.9-1.9 1.04 0 1.9 0.85 1.9 1.9 0 1.01-0.86 1.89-1.9 1.89zm-1.48 15.81v-13.75h2.96v13.75z"/>
	<path class="s1" d="m122.01 5.5c3.11 0 5.2 2.14 5.2 5.58v8.52h-2.97v-8.33c0-1.92-1.04-3-2.67-3-1.76 0-2.99 1.13-2.99 3.63v7.7h-2.97v-8.33c0-1.92-0.96-3-2.58-3-1.68 0-3.06 1.13-3.06 3.63v7.7h-2.96v-13.75h2.96v1.65c0.88-1.34 2.23-2 3.94-2 1.78 0 3.1 0.79 3.9 2.17 0.91-1.43 2.36-2.17 4.2-2.17z"/>
	<path class="s1" d="m93.35 13.99c0.46 2.14 2.19 3.24 4.39 3.24 1.65 0 2.89-0.74 3.55-1.7l2.45 1.43c-1.27 1.87-3.33 2.99-6.02 2.99-4.54 0-7.48-3.1-7.48-7.22 0-4.07 2.94-7.23 7.26-7.23 4.09 0 6.9 3.3 6.9 7.25 0 0.42-0.06 0.86-0.11 1.24zm-0.03-2.42h8.08c-0.41-2.36-2.15-3.38-3.93-3.38-2.23 0-3.74 1.32-4.15 3.38z"/>
	<path class="s1" d="m85.23 8.16c0.82-1.87 2.5-2.55 4.23-2.55v3.21c-1.95-0.13-4.23 0.77-4.23 3.85v6.93h-2.97v-13.75h2.97z"/>
	<path class="s1" d="m72.73 5.5c3.73 0 6.84 3.16 6.84 7.23 0 4.09-3.11 7.22-6.84 7.22-2.15 0-3.77-0.88-4.81-2.3v7.44h-2.97v-19.24h2.97v1.98c1.04-1.45 2.66-2.33 4.81-2.33zm-0.47 11.62c2.47 0 4.34-1.84 4.34-4.39 0-2.56-1.87-4.4-4.34-4.4-2.48 0-4.34 1.84-4.34 4.4 0 2.55 1.86 4.39 4.34 4.39z"/>
	<path class="s1" d="m152.03 35.28c0 2.39 7.07 0.95 7.07 5.81 0 2.62-2.29 4.04-5.13 4.04-2.62 0-4.51-1.18-5.35-3.07l2.44-1.42c0.42 1.18 1.47 1.89 2.91 1.89 1.27 0 2.24-0.42 2.24-1.47 0-2.34-7.07-1.02-7.07-5.72 0-2.47 2.13-4.02 4.81-4.02 2.15 0 3.94 1 4.86 2.73l-2.39 1.34c-0.48-1.02-1.39-1.5-2.47-1.5-1.03 0-1.92 0.45-1.92 1.39z"/>
	<path class="s1" d="m147.4 34.39h-3.26v6.3c0 1.69 1.1 1.66 3.26 1.55v2.55c-4.36 0.53-6.09-0.68-6.09-4.09v-6.31h-2.42v-2.73h2.42v-2.84l2.83-0.84v3.68h3.26z"/>
	<path class="s1" d="m127.43 39.43c0.44 2.05 2.1 3.1 4.2 3.1 1.58 0 2.76-0.71 3.39-1.63l2.34 1.37c-1.21 1.79-3.18 2.86-5.76 2.86-4.33 0-7.14-2.96-7.14-6.9 0-3.89 2.81-6.91 6.94-6.91 3.91 0 6.59 3.15 6.59 6.93 0 0.4-0.06 0.82-0.11 1.18zm-0.03-2.31h7.73c-0.4-2.26-2.05-3.23-3.76-3.23-2.13 0-3.57 1.26-3.97 3.23z"/>
	<path class="s1" d="m124.34 44.79h-3.39l-5.38-6.07v6.07h-2.84v-18.38h2.84v11.05l5.09-5.8h3.47l-5.78 6.43z"/>
	<path class="s1" d="m106.59 33.87c0.79-1.79 2.39-2.45 4.05-2.45v3.08c-1.87-0.13-4.05 0.73-4.05 3.67v6.62h-2.84v-13.13h2.84z"/>
	<path class="s1" d="m97.61 31.66h2.84v13.13h-2.84v-1.89c-1 1.39-2.55 2.23-4.59 2.23-3.58 0-6.54-3.02-6.54-6.9 0-3.92 2.96-6.91 6.54-6.91 2.04 0 3.59 0.84 4.59 2.2zm-4.15 10.77c2.37 0 4.15-1.76 4.15-4.2 0-2.44-1.78-4.2-4.15-4.2-2.36 0-4.15 1.76-4.15 4.2 0 2.44 1.79 4.2 4.15 4.2z"/>
	<path class="s1" d="m79.21 31.32c2.97 0 4.96 2.05 4.96 5.33v8.14h-2.83v-7.96c0-1.83-1-2.86-2.55-2.86-1.68 0-2.86 1.08-2.86 3.47v7.35h-2.84v-7.96c0-1.83-0.92-2.86-2.47-2.86-1.6 0-2.91 1.08-2.91 3.47v7.35h-2.84v-13.13h2.84v1.58c0.84-1.29 2.12-1.92 3.75-1.92 1.71 0 2.97 0.76 3.73 2.07 0.87-1.36 2.26-2.07 4.02-2.07z"/>
</svg>